<?xml version="1.0" encoding="UTF-8" standalone="no"?>
<!-- Created with Inkscape (http://www.inkscape.org/) -->

<svg
   width="864.88mm"
   height="673.04999mm"
   viewBox="0 0 864.88 673.04999"
   version="1.1"
   id="svg1"
   inkscape:version="1.3.2 (091e20e, 2023-11-25, custom)"
   sodipodi:docname="ulkokuori digitalfabrication.svg"
   xmlns:inkscape="http://www.inkscape.org/namespaces/inkscape"
   xmlns:sodipodi="http://sodipodi.sourceforge.net/DTD/sodipodi-0.dtd"
   xmlns="http://www.w3.org/2000/svg"
   xmlns:svg="http://www.w3.org/2000/svg">
  <sodipodi:namedview
     id="namedview1"
     pagecolor="#ffffff"
     bordercolor="#000000"
     borderopacity="0.25"
     inkscape:showpageshadow="2"
     inkscape:pageopacity="0.0"
     inkscape:pagecheckerboard="0"
     inkscape:deskcolor="#d1d1d1"
     inkscape:document-units="mm"
     inkscape:zoom="0.31723122"
     inkscape:cx="1607.6602"
     inkscape:cy="953.56315"
     inkscape:window-width="1920"
     inkscape:window-height="1009"
     inkscape:window-x="-8"
     inkscape:window-y="-8"
     inkscape:window-maximized="1"
     inkscape:current-layer="layer1" />
  <defs
     id="defs1" />
  <g
     inkscape:label="Taso 1"
     inkscape:groupmode="layer"
     id="layer1"
     transform="translate(0.5,-0.3)">
    <g
       id="panel5737">
      <path
         style="fill:none;stroke:#000000;stroke-width:1"
         d="m 150.77,266.74 h 10.713 v -3 h 10.17 v 3 h 10.628 v -3 h 10.17 v 3 h 10.628 v -3 h 10.17 v 3 h 10.627 v -3 h 10.17 v 3 h 10.628 v -3 h 10.17 v 3 h 10.628 v -3 h 10.17 v 3 h 10.628 v -3 h 10.17 v 3 h 10.628 v -3 h 10.17 v 3 h 10.628 v -3 h 10.17 v 3 h 10.628 v -3 h 10.17 v 3 h 10.627 v -3 h 10.17 v 3 h 10.628 v -3 h 10.17 v 3 h 10.628 v -3 h 10.17 v 3 h 10.713"
         id="path1" />
      <path
         style="fill:none;stroke:#000000;stroke-width:1"
         d="m 431.94,266.74 v 9.824 h -3 v 9.83 h 3 v 12.908 h -3 v 9.83 h 3 v 12.909 h -3 v 9.83 h 3 v 12.908 h -3 v 9.83 h 3 v 12.909 h -3 v 9.83 h 3 v 12.908 h -3 v 9.83 h 3 v 9.824"
         id="path2" />
      <path
         style="fill:none;stroke:#000000;stroke-width:1"
         d="m 431.94,409.91 h -10.713 v 3 h -10.17 v -3 h -10.628 v 3 h -10.17 v -3 h -10.628 v 3 h -10.17 v -3 h -10.627 v 3 h -10.17 v -3 h -10.628 v 3 h -10.17 v -3 h -10.628 v 3 h -10.17 v -3 H 296.44 v 3 h -10.17 v -3 h -10.628 v 3 h -10.17 v -3 h -10.628 v 3 h -10.17 v -3 h -10.628 v 3 h -10.17 v -3 h -10.627 v 3 h -10.17 v -3 h -10.628 v 3 h -10.17 v -3 h -10.628 v 3 h -10.17 v -3 H 150.77"
         id="path3" />
      <path
         style="fill:none;stroke:#000000;stroke-width:1"
         d="m 150.77,409.91 v -9.824 h 3 v -9.83 h -3 v -12.908 h 3 v -9.83 h -3 v -12.909 h 3 v -9.83 h -3 v -12.908 h 3 v -9.83 h -3 v -12.909 h 3 v -9.83 h -3 v -12.908 h 3 v -9.83 h -3 v -9.824"
         id="path4" />
    </g>
    <g
       id="panel9886">
      <path
         style="fill:none;stroke:#000000;stroke-width:1"
         d="m 3,416.71 h 7.7129 v 0 h 10.17 v 0 h 10.6278 v 0 h 10.17 v 0 h 10.6279 v 0 h 10.17 v 0 h 10.6278 v 0 h 10.17 v 0 h 10.6279 v 0 h 10.1697 v 0 h 10.628 v 0 h 10.17 v 0 H 135.5 v 0 h 10.17 v 0 h 10.628 v 0 h 10.17 v 0 h 10.628 v 0 h 10.17 v 0 h 10.628 v 0 h 10.17 v 0 h 10.627 v 0 h 10.17 v 0 h 10.628 v 0 h 10.17 v 0 h 10.628 v 0 h 10.17 v 0 h 7.713"
         id="path5" />
      <path
         style="fill:none;stroke:#000000;stroke-width:1"
         d="m 205.713,413.71 v 74.67 h 2.83 v -74.67 h -2.83"
         id="path6" />
      <path
         style="fill:none;stroke:#000000;stroke-width:1"
         d="m 136.17,413.71 v 74.67 H 139 v -74.67 h -2.83"
         id="path7" />
      <path
         style="fill:none;stroke:#000000;stroke-width:1"
         d="m 66.6275,413.71 v 74.67 h 2.83 v -74.67 h -2.83"
         id="path8" />
      <path
         style="fill:none;stroke:#000000;stroke-width:1"
         d="m 278.17,416.71 v 9.654 0 10.17 0 12.568 0 10.17 0 12.569 0 10.17 0 12.568 0 10.17 0 12.569 0 10.17 0 12.568 0 10.17 0 9.654"
         id="path9" />
      <path
         style="fill:none;stroke:#000000;stroke-width:1"
         d="m 278.17,559.88 h -7.713 v 0 h -10.17 v 0 h -10.628 v 0 h -10.17 v 0 h -10.628 v 0 h -10.17 v 0 h -10.627 v 0 h -10.17 v 0 h -10.628 v 0 h -10.17 v 0 h -10.628 v 0 h -10.17 v 0 H 145.67 v 0 H 135.5 v 0 h -10.628 v 0 h -10.17 v 0 h -10.628 v 0 H 93.9043 v 0 H 83.2764 v 0 h -10.17 v 0 H 62.4786 v 0 h -10.17 v 0 H 41.6807 v 0 h -10.17 v 0 H 20.8829 v 0 h -10.17 v 0 H 3"
         id="path10" />
      <path
         style="fill:none;stroke:#000000;stroke-width:1"
         d="m 3,559.88 v -9.654 0 -10.17 0 -12.568 0 -10.17 0 -12.569 0 -10.17 0 -12.568 0 -10.17 0 -12.569 0 -10.17 0 -12.568 0 -10.17 0 -9.654"
         id="path11" />
    </g>
    <g
       id="panel9538">
      <path
         style="fill:none;stroke:#000000;stroke-width:1"
         d="m 284.97,416.71 h 7.713 v 0 h 10.17 v 0 h 10.628 v 0 h 10.17 v 0 h 10.628 v 0 h 10.17 v 0 h 10.627 v 0 h 10.17 v 0 h 10.628 v 0 h 10.17 v 0 h 10.628 v 0 h 10.17 v 0 h 10.628 v 0 h 10.17 v 0 h 10.628 v 0 h 10.17 v 0 h 10.628 v 0 h 10.17 v 0 h 10.628 v 0 h 10.17 v 0 h 10.627 v 0 h 10.17 v 0 h 10.628 v 0 h 10.17 v 0 h 10.628 v 0 h 10.17 v 0 h 7.713"
         id="path12" />
      <path
         style="fill:none;stroke:#000000;stroke-width:1"
         d="m 487.683,413.71 v 74.67 h 2.83 v -74.67 h -2.83"
         id="path13" />
      <path
         style="fill:none;stroke:#000000;stroke-width:1"
         d="m 418.14,413.71 v 74.67 h 2.83 v -74.67 h -2.83"
         id="path14" />
      <path
         style="fill:none;stroke:#000000;stroke-width:1"
         d="m 348.598,413.71 v 74.67 h 2.83 v -74.67 h -2.83"
         id="path15" />
      <path
         style="fill:none;stroke:#000000;stroke-width:1"
         d="m 560.14,416.71 v 9.654 0 10.17 0 12.568 0 10.17 0 12.569 0 10.17 0 12.568 0 10.17 0 12.569 0 10.17 0 12.568 0 10.17 0 9.654"
         id="path16" />
      <path
         style="fill:none;stroke:#000000;stroke-width:1"
         d="m 560.14,559.88 h -7.713 v 0 h -10.17 v 0 h -10.628 v 0 h -10.17 v 0 h -10.628 v 0 h -10.17 v 0 h -10.627 v 0 h -10.17 v 0 h -10.628 v 0 h -10.17 v 0 h -10.628 v 0 h -10.17 v 0 H 427.64 v 0 h -10.17 v 0 h -10.628 v 0 h -10.17 v 0 h -10.628 v 0 h -10.17 v 0 h -10.628 v 0 h -10.17 v 0 h -10.627 v 0 h -10.17 v 0 h -10.628 v 0 h -10.17 v 0 h -10.628 v 0 h -10.17 v 0 h -7.713"
         id="path17" />
      <path
         style="fill:none;stroke:#000000;stroke-width:1"
         d="m 284.97,559.88 v -9.654 0 -10.17 0 -12.568 0 -10.17 0 -12.569 0 -10.17 0 -12.568 0 -10.17 0 -12.569 0 -10.17 0 -12.568 0 -10.17 0 -9.654"
         id="path18" />
    </g>
    <g
       id="panel6704">
      <path
         style="fill:none;stroke:#000000;stroke-width:1"
         d="m 3.8,153.77 h 9.6536 v -3 h 10.17 v 3 h 12.5685 v -3 h 10.17 v 3 h 12.5686 v -3 h 10.17 v 3 h 12.5686 v -3 h 10.17 v 3 h 12.5687 v -3 h 10.17 v 3 h 12.568 v -3 h 10.17 v 3 h 9.654"
         id="path19" />
      <path
         style="fill:none;stroke:#000000;stroke-width:1"
         d="m 146.97,153.77 v 7.277 h 3 v 10.17 h -3 v 10.191 h 3 v 10.17 h -3 v 10.192 h 3 v 10.17 h -3 v 10.192 h 3 v 10.17 h -3 v 10.191 h 3 v 10.17 h -3 v 7.277"
         id="path20" />
      <path
         style="fill:none;stroke:#000000;stroke-width:1"
         d="m 146.97,259.94 h -9.654 v 3 h -10.17 v -3 h -12.568 v 3 h -10.17 v -3 H 91.8393 v 3 h -10.17 v -3 H 69.1007 v 3 h -10.17 v -3 H 46.3621 v 3 h -10.17 v -3 H 23.6236 v 3 h -10.17 v -3 H 3.8"
         id="path21" />
      <path
         style="fill:none;stroke:#000000;stroke-width:1"
         d="m 3.8,259.94 v -7.277 h -3 v -10.17 h 3 v -10.191 h -3 v -10.17 h 3 V 211.94 h -3 v -10.17 h 3 v -10.192 h -3 v -10.17 h 3 v -10.191 h -3 v -10.17 h 3 v -7.277"
         id="path22" />
    </g>
    <g
       id="panel5056">
      <path
         style="fill:none;stroke:#000000;stroke-width:1"
         d="m 0,600.155 h 74.67 v 2.83 H 0 v -2.83"
         id="path23" />
      <path
         style="fill:none;stroke:#000000;stroke-width:1"
         d="m 0,636.545 h 74.67 v 2.83 H 0 v -2.83"
         id="path24" />
      <path
         style="fill:none;stroke:#000000;stroke-width:1"
         d="m 3,566.68 h 9.6536 v 0 h 10.17 v 0 h 12.5685 v 0 h 10.17 v 0 h 12.5686 v 0 h 10.17 v 0 h 12.5686 v 0 h 10.17 v 0 h 12.5687 v 0 h 10.17 v 0 h 12.568 v 0 h 10.17 v 0 h 9.654"
         id="path25" />
      <path
         style="fill:none;stroke:#000000;stroke-width:1"
         d="m 146.17,566.68 v 7.277 0 10.17 0 10.191 0 10.17 0 10.192 0 10.17 0 10.192 0 10.17 0 10.191 0 10.17 0 7.277"
         id="path26" />
      <path
         style="fill:none;stroke:#000000;stroke-width:1"
         d="m 146.17,672.85 h -9.654 v 0 h -10.17 v 0 h -12.568 v 0 h -10.17 v 0 H 91.0393 v 0 h -10.17 v 0 H 68.3007 v 0 h -10.17 v 0 H 45.5621 v 0 h -10.17 v 0 H 22.8236 v 0 h -10.17 v 0 H 3"
         id="path27" />
      <path
         style="fill:none;stroke:#000000;stroke-width:1"
         d="m 3,672.85 v -7.277 0 -10.17 0 -10.191 0 -10.17 0 -10.192 0 -10.17 0 -10.192 0 -10.17 0 -10.191 0 -10.17 0 -7.277"
         id="path28" />
    </g>
    <g
       id="panel3908">
      <path
         style="fill:none;stroke:#000000;stroke-width:1"
         d="m 149.97,600.155 h 74.67 v 2.83 h -74.67 v -2.83"
         id="path29" />
      <path
         style="fill:none;stroke:#000000;stroke-width:1"
         d="m 149.97,636.545 h 74.67 v 2.83 h -74.67 v -2.83"
         id="path30" />
      <path
         style="fill:none;stroke:#000000;stroke-width:1"
         d="m 152.97,566.68 h 9.654 v 0 h 10.17 v 0 h 12.568 v 0 h 10.17 v 0 h 12.569 v 0 h 10.17 v 0 h 12.568 v 0 h 10.17 v 0 h 12.569 v 0 h 10.17 v 0 h 12.568 v 0 h 10.17 v 0 h 9.654"
         id="path31" />
      <path
         style="fill:none;stroke:#000000;stroke-width:1"
         d="m 296.14,566.68 v 7.277 0 10.17 0 10.191 0 10.17 0 10.192 0 10.17 0 10.192 0 10.17 0 10.191 0 10.17 0 7.277"
         id="path32" />
      <path
         style="fill:none;stroke:#000000;stroke-width:1"
         d="m 296.14,672.85 h -9.654 v 0 h -10.17 v 0 h -12.568 v 0 h -10.17 v 0 h -12.569 v 0 h -10.17 v 0 h -12.568 v 0 h -10.17 v 0 h -12.569 v 0 h -10.17 v 0 h -12.568 v 0 h -10.17 v 0 h -9.654"
         id="path33" />
      <path
         style="fill:none;stroke:#000000;stroke-width:1"
         d="m 152.97,672.85 v -7.277 0 -10.17 0 -10.191 0 -10.17 0 -10.192 0 -10.17 0 -10.192 0 -10.17 0 -10.191 0 -10.17 0 -7.277"
         id="path34" />
    </g>
    <g
       id="panel5982">
      <path
         style="fill:none;stroke:#000000;stroke-width:1"
         d="m 299.94,600.155 h 74.67 v 2.83 h -74.67 v -2.83"
         id="path35" />
      <path
         style="fill:none;stroke:#000000;stroke-width:1"
         d="m 299.94,636.545 h 74.67 v 2.83 h -74.67 v -2.83"
         id="path36" />
      <path
         style="fill:none;stroke:#000000;stroke-width:1"
         d="m 302.94,566.68 h 9.654 v 0 h 10.17 v 0 h 12.568 v 0 h 10.17 v 0 h 12.569 v 0 h 10.17 v 0 h 12.568 v 0 h 10.17 v 0 h 12.569 v 0 h 10.17 v 0 h 12.568 v 0 h 10.17 v 0 h 9.654"
         id="path37" />
      <path
         style="fill:none;stroke:#000000;stroke-width:1"
         d="m 446.11,566.68 v 7.277 0 10.17 0 10.191 0 10.17 0 10.192 0 10.17 0 10.192 0 10.17 0 10.191 0 10.17 0 7.277"
         id="path38" />
      <path
         style="fill:none;stroke:#000000;stroke-width:1"
         d="m 446.11,672.85 h -9.654 v 0 h -10.17 v 0 h -12.568 v 0 h -10.17 v 0 h -12.569 v 0 h -10.17 v 0 h -12.568 v 0 h -10.17 v 0 h -12.569 v 0 h -10.17 v 0 h -12.568 v 0 h -10.17 v 0 h -9.654"
         id="path39" />
      <path
         style="fill:none;stroke:#000000;stroke-width:1"
         d="m 302.94,672.85 v -7.277 0 -10.17 0 -10.191 0 -10.17 0 -10.192 0 -10.17 0 -10.192 0 -10.17 0 -10.191 0 -10.17 0 -7.277"
         id="path40" />
    </g>
    <g
       id="panel393">
      <path
         style="fill:none;stroke:#000000;stroke-width:1"
         d="m 150.77,150.77 h 10.883 v 3 h 9.83 v -3 h 10.968 v 3 h 9.83 v -3 h 10.968 v 3 h 9.83 v -3 h 10.967 v 3 h 9.83 v -3 h 10.968 v 3 h 9.83 v -3 h 10.968 v 3 h 9.83 v -3 h 10.968 v 3 h 9.83 v -3 h 10.968 v 3 h 9.83 v -3 h 10.968 v 3 h 9.83 v -3 h 10.968 v 3 h 9.83 v -3 h 10.967 v 3 h 9.83 v -3 h 10.968 v 3 h 9.83 v -3 h 10.968 v 3 h 9.83 v -3 h 10.883"
         id="path41" />
      <path
         style="fill:none;stroke:#000000;stroke-width:1"
         d="m 431.94,150.77 v 10.447 h -3 v 9.83 h 3 v 10.531 h -3 v 9.83 h 3 v 10.532 h -3 v 9.83 h 3 v 10.532 h -3 v 9.83 h 3 v 10.531 h -3 v 9.83 h 3 v 10.447"
         id="path42" />
      <path
         style="fill:none;stroke:#000000;stroke-width:1"
         d="m 431.94,262.94 h -10.883 v -3 h -9.83 v 3 h -10.968 v -3 h -9.83 v 3 h -10.968 v -3 h -9.83 v 3 h -10.967 v -3 h -9.83 v 3 h -10.968 v -3 h -9.83 v 3 h -10.968 v -3 h -9.83 v 3 H 296.27 v -3 h -9.83 v 3 h -10.968 v -3 h -9.83 v 3 h -10.968 v -3 h -9.83 v 3 h -10.968 v -3 h -9.83 v 3 h -10.967 v -3 h -9.83 v 3 h -10.968 v -3 h -9.83 v 3 h -10.968 v -3 h -9.83 v 3 H 150.77"
         id="path43" />
      <path
         style="fill:none;stroke:#000000;stroke-width:1"
         d="m 150.77,262.94 v -10.447 h 3 v -9.83 h -3 v -10.531 h 3 v -9.83 h -3 V 211.77 h 3 v -9.83 h -3 v -10.532 h 3 v -9.83 h -3 v -10.531 h 3 v -9.83 h -3 V 150.77"
         id="path44" />
    </g>
    <g
       id="panel5885">
      <path
         style="fill:none;stroke:#000000;stroke-width:1"
         d="m 435.74,153.77 h 9.654 v -3 h 10.17 v 3 h 12.568 v -3 h 10.17 v 3 h 12.569 v -3 h 10.17 v 3 h 12.568 v -3 h 10.17 v 3 h 12.569 v -3 h 10.17 v 3 h 12.568 v -3 h 10.17 v 3 h 9.654"
         id="path45" />
      <path
         style="fill:none;stroke:#000000;stroke-width:1"
         d="m 578.91,153.77 v 7.277 h 3 v 10.17 h -3 v 10.191 h 3 v 10.17 h -3 v 10.192 h 3 v 10.17 h -3 v 10.192 h 3 v 10.17 h -3 v 10.191 h 3 v 10.17 h -3 v 7.277"
         id="path46" />
      <path
         style="fill:none;stroke:#000000;stroke-width:1"
         d="m 578.91,259.94 h -9.654 v 3 h -10.17 v -3 h -12.568 v 3 h -10.17 v -3 h -12.569 v 3 h -10.17 v -3 h -12.568 v 3 h -10.17 v -3 h -12.569 v 3 h -10.17 v -3 h -12.568 v 3 h -10.17 v -3 h -9.654"
         id="path47" />
      <path
         style="fill:none;stroke:#000000;stroke-width:1"
         d="m 435.74,259.94 v -7.277 h -3 v -10.17 h 3 v -10.191 h -3 v -10.17 h 3 V 211.94 h -3 v -10.17 h 3 v -10.192 h -3 v -10.17 h 3 v -10.191 h -3 v -10.17 h 3 v -7.277"
         id="path48" />
    </g>
    <g
       id="panel4497">
      <path
         style="fill:none;stroke:#000000;stroke-width:1"
         d="m 582.71,150.77 h 10.883 v 3 h 9.83 v -3 h 10.968 v 3 h 9.83 v -3 h 10.968 v 3 h 9.83 v -3 h 10.967 v 3 h 9.83 v -3 h 10.968 v 3 h 9.83 v -3 h 10.968 v 3 h 9.83 v -3 h 10.968 v 3 h 9.83 v -3 h 10.968 v 3 h 9.83 v -3 h 10.968 v 3 h 9.83 v -3 h 10.968 v 3 h 9.83 v -3 h 10.967 v 3 h 9.83 v -3 h 10.968 v 3 h 9.83 v -3 h 10.968 v 3 h 9.83 v -3 h 10.883"
         id="path49" />
      <path
         style="fill:none;stroke:#000000;stroke-width:1"
         d="m 863.88,150.77 v 10.447 h -3 v 9.83 h 3 v 10.531 h -3 v 9.83 h 3 v 10.532 h -3 v 9.83 h 3 v 10.532 h -3 v 9.83 h 3 v 10.531 h -3 v 9.83 h 3 v 10.447"
         id="path50" />
      <path
         style="fill:none;stroke:#000000;stroke-width:1"
         d="m 863.88,262.94 h -10.883 v -3 h -9.83 v 3 h -10.968 v -3 h -9.83 v 3 h -10.968 v -3 h -9.83 v 3 h -10.967 v -3 h -9.83 v 3 h -10.968 v -3 h -9.83 v 3 h -10.968 v -3 h -9.83 v 3 H 728.21 v -3 h -9.83 v 3 h -10.968 v -3 h -9.83 v 3 h -10.968 v -3 h -9.83 v 3 h -10.968 v -3 h -9.83 v 3 h -10.967 v -3 h -9.83 v 3 h -10.968 v -3 h -9.83 v 3 h -10.968 v -3 h -9.83 v 3 H 582.71"
         id="path51" />
      <path
         style="fill:none;stroke:#000000;stroke-width:1"
         d="m 582.71,262.94 v -10.447 h 3 v -9.83 h -3 v -10.531 h 3 v -9.83 h -3 V 211.77 h 3 v -9.83 h -3 v -10.532 h 3 v -9.83 h -3 v -10.531 h 3 v -9.83 h -3 V 150.77"
         id="path52" />
    </g>
    <g
       id="panel9744">
      <path
         style="fill:none;stroke:#000000;stroke-width:1"
         d="m 150.77,3.8 h 10.713 v -3 h 10.17 v 3 h 10.628 v -3 h 10.17 v 3 h 10.628 v -3 h 10.17 v 3 h 10.627 v -3 h 10.17 v 3 h 10.628 v -3 h 10.17 v 3 h 10.628 v -3 h 10.17 v 3 h 10.628 v -3 h 10.17 v 3 h 10.628 v -3 h 10.17 v 3 h 10.628 v -3 h 10.17 v 3 h 10.628 v -3 h 10.17 v 3 h 10.627 v -3 h 10.17 v 3 h 10.628 v -3 h 10.17 v 3 h 10.628 v -3 h 10.17 v 3 h 10.713"
         id="path53" />
      <path
         style="fill:none;stroke:#000000;stroke-width:1"
         d="m 431.94,3.8 v 9.8236 h -3 v 9.83 h 3 v 12.9085 h -3 v 9.83 h 3 v 12.9086 h -3 v 9.83 h 3 v 12.9086 h -3 v 9.83 h 3 v 12.9087 h -3 v 9.83 h 3 v 12.908 h -3 v 9.83 h 3 v 9.824"
         id="path54" />
      <path
         style="fill:none;stroke:#000000;stroke-width:1"
         d="m 431.94,146.97 h -10.713 v 3 h -10.17 v -3 h -10.628 v 3 h -10.17 v -3 h -10.628 v 3 h -10.17 v -3 h -10.627 v 3 h -10.17 v -3 h -10.628 v 3 h -10.17 v -3 h -10.628 v 3 h -10.17 v -3 H 296.44 v 3 h -10.17 v -3 h -10.628 v 3 h -10.17 v -3 h -10.628 v 3 h -10.17 v -3 h -10.628 v 3 h -10.17 v -3 h -10.627 v 3 h -10.17 v -3 h -10.628 v 3 h -10.17 v -3 h -10.628 v 3 h -10.17 v -3 H 150.77"
         id="path55" />
      <path
         style="fill:none;stroke:#000000;stroke-width:1"
         d="m 150.77,146.97 v -9.824 h 3 v -9.83 h -3 v -12.908 h 3 v -9.83 h -3 V 91.6693 h 3 v -9.83 h -3 V 68.9307 h 3 v -9.83 h -3 V 46.1921 h 3 v -9.83 h -3 V 23.4536 h 3 v -9.83 h -3 V 3.8"
         id="path56" />
    </g>
    <ellipse
       style="fill-rule:evenodd;stroke-width:0.281431;fill-opacity:0.85572141"
       id="path62"
       cx="507.30396"
       cy="207.22266"
       rx="27.307014"
       ry="50.164227" />
    <rect
       style="fill:#000000;stroke-width:0.0201821"
       id="rect63"
       width="43.992584"
       height="105.70887"
       x="452.81296"
       y="25.773596" />
    <rect
       style="fill:#000000;stroke-width:0.0201821"
       id="rect63-7"
       width="43.992584"
       height="105.70887"
       x="501.01422"
       y="26.031475" />
    <rect
       style="fill:#000000;stroke-width:0.0201821"
       id="rect63-7-1"
       width="43.992584"
       height="105.70887"
       x="549.2738"
       y="25.888086" />
    <rect
       style="fill:#000000;stroke-width:0.0201821"
       id="rect63-7-0"
       width="43.992584"
       height="105.70887"
       x="597.08923"
       y="25.672796" />
  </g>
</svg>
